<svg width="24" height="24" viewBox="0 0 24 24" fill="none" xmlns="http://www.w3.org/2000/svg">
<path opacity="0.15" d="M4 21C4 20.4477 4.44772 20 5 20H19C19.5523 20 20 20.4477 20 21C20 21.5523 19.5523 22 19 22H5C4.44772 22 4 21.5523 4 21Z" fill="#0F172A"/>
<path d="M13.7087 2.8772C14.8803 1.70564 16.7798 1.70565 17.9513 2.87722L19.1229 4.04879C20.2945 5.22037 20.2945 7.11987 19.1229 8.29144L18.7072 8.70716L13.2929 3.29295L13.7087 2.8772Z" fill="#0F172A"/>
<path d="M5.79697 10.797C5.65973 10.9607 5.5587 11.1522 5.50122 11.359L4.04383 16.6018C3.8146 17.4264 4.57358 18.1854 5.39825 17.9562L10.641 16.4988C10.8478 16.4413 11.0394 16.3403 11.203 16.203L5.79697 10.797Z" fill="#0F172A"/>
<path opacity="0.15" d="M18.7072 8.70718L13.2929 3.29297L5.88576 10.7001C5.85469 10.7311 5.82507 10.7635 5.79697 10.797L11.203 16.2031C11.2366 16.175 11.2689 16.1454 11.3 16.1143L18.7072 8.70718Z" fill="#0F172A"/>
</svg>
